<?xml version="1.0" encoding="UTF-8"?>
<svg xmlns="http://www.w3.org/2000/svg" viewBox="0 0 1024 1024" width="1024" height="1024">
<defs>
<linearGradient id="goldArc" x1="4.7%" y1="28.9%" x2="95.3%" y2="71.1%">
<stop offset="0%" stop-color="#3A2411" stop-opacity="1"/>
<stop offset="18%" stop-color="#7A4A22" stop-opacity="1"/>
<stop offset="46%" stop-color="#C48551" stop-opacity="1"/>
<stop offset="62%" stop-color="#FFD089" stop-opacity="1"/>
<stop offset="82%" stop-color="#C48551" stop-opacity="1"/>
<stop offset="100%" stop-color="#4A2E15" stop-opacity="1"/>
</linearGradient>
<linearGradient id="chromeCore" x1="71.1%" y1="4.7%" x2="28.9%" y2="95.3%">
<stop offset="0%" stop-color="#2B2E36" stop-opacity="1"/>
<stop offset="32%" stop-color="#B7ACAA" stop-opacity="1"/>
<stop offset="55%" stop-color="#FFF1DE" stop-opacity="1"/>
<stop offset="78%" stop-color="#7B6E66" stop-opacity="1"/>
<stop offset="100%" stop-color="#1A1C22" stop-opacity="1"/>
</linearGradient>
<filter id="glow_gold" x="-50%" y="-50%" width="200%" height="200%">
  <feDropShadow dx="0" dy="0" stdDeviation="23.0" flood-color="#FFD089" flood-opacity="0.55"/>
</filter>
<filter id="iconShadow" x="-50%" y="-50%" width="200%" height="200%">
  <feDropShadow dx="0.0" dy="14.0" stdDeviation="14.0" flood-color="#000000" flood-opacity="0.55"/>
</filter>
<filter id="specBlur" x="-50%" y="-50%" width="200%" height="200%">
  <feGaussianBlur stdDeviation="4.0"/>
</filter>
</defs>
<ellipse cx="512.0" cy="512.0" rx="518.1440000000001" ry="382.97600000000006" transform="rotate(-18 512.0 512.0)" fill="#FFD089" opacity="0.33" filter="url(#glow_gold)"/><ellipse cx="512.0" cy="512.0" rx="471.04" ry="348.16" transform="rotate(-18 512.0 512.0)" fill="#050405" opacity="0.6" filter="url(#iconShadow)"/><ellipse cx="512.0" cy="512.0" rx="368.64" ry="266.24" transform="rotate(-18 512.0 512.0)" fill="none" stroke="url(#chromeCore)" stroke-width="204.8" opacity="0.95"/><path d="M 824.75 252.13 L 838.47 261.95 L 851.35 272.32 L 863.37 283.21 L 874.50 294.60 L 884.74 306.46 L 894.07 318.76 L 902.49 331.48 L 909.99 344.59 L 916.55 358.07 L 922.17 371.91 L 926.86 386.08 L 930.58 400.57 L 933.35 415.36 L 935.15 430.42 L 935.96 445.75 L 935.78 461.30 L 934.59 477.07 L 932.39 493.00 L 929.17 509.07 L 924.93 525.25 L 919.65 541.48 L 913.35 557.73 L 906.03 573.96 L 897.69 590.11 L 888.35 606.15 L 878.03 622.01 L 866.74 637.67 L 854.51 653.06 L 841.38 668.14 L 827.36 682.88 L 812.49 697.22 L 796.81 711.11 L 780.36 724.53 L 763.18 737.44 L 745.31 749.78 L 726.81 761.53 L 707.72 772.66 L 688.08 783.12 L 667.96 792.90 L 647.40 801.97 L 626.45 810.29 L 605.18 817.85 L 583.64 824.63 L 561.89 830.61 L 539.98 835.76 L 517.96 840.09 L 495.91 843.57 L 473.87 846.20 L 451.90 847.97 L 430.06 848.88 L 408.40 848.93 L 386.99 848.11 L 365.87 846.44 L 345.11 843.91 L 324.74 840.54 L 304.82 836.34 L 285.41 831.31 L 266.55 825.47 L 248.28 818.84 L 230.65 811.44 L 213.70 803.28 L 197.46 794.38 L 181.98 784.77 L 167.29 774.47 L 153.43 763.50 L 140.41 751.89 L 128.27 739.66 L 117.04 726.83 L 106.75 713.43 L 97.40 699.48 L 89.04 685.02 L 81.68 670.06 L 75.33 654.64 L 70.03 638.79 L 65.79 622.54 L 62.63 605.91 L 60.57 588.96 L 59.61 571.71 L 59.77 554.22 L 61.06 536.52 L 47.41 534.55 L 44.62 552.99 L 43.02 571.44 L 42.62 589.83 L 43.43 608.12 L 45.46 626.27 L 48.70 644.22 L 53.17 661.92 L 58.84 679.32 L 65.72 696.36 L 73.79 712.99 L 83.02 729.16 L 93.40 744.83 L 104.89 759.94 L 117.47 774.45 L 131.10 788.31 L 145.74 801.49 L 161.34 813.95 L 177.87 825.65 L 195.28 836.57 L 213.52 846.67 L 232.54 855.93 L 252.29 864.33 L 272.71 871.84 L 293.76 878.45 L 315.38 884.15 L 337.51 888.92 L 360.10 892.74 L 383.09 895.62 L 406.42 897.55 L 430.04 898.52 L 453.89 898.54 L 477.91 897.59 L 502.03 895.69 L 526.21 892.84 L 550.38 889.05 L 574.48 884.33 L 598.45 878.69 L 622.24 872.14 L 645.80 864.70 L 669.05 856.38 L 691.95 847.20 L 714.44 837.19 L 736.46 826.37 L 757.97 814.75 L 778.91 802.38 L 799.23 789.26 L 818.88 775.44 L 837.81 760.94 L 855.98 745.79 L 873.33 730.02 L 889.83 713.67 L 905.43 696.77 L 920.09 679.36 L 933.77 661.47 L 946.42 643.14 L 958.03 624.41 L 968.54 605.32 L 977.92 585.91 L 986.14 566.23 L 993.17 546.31 L 998.97 526.22 L 1003.53 506.00 L 1006.81 485.71 L 1008.79 465.39 L 1009.47 445.12 L 1008.81 424.95 L 1006.83 404.94 L 1003.51 385.17 L 998.86 365.70 L 992.89 346.60 L 985.62 327.93 L 977.08 309.76 L 967.30 292.14 L 956.32 275.14 L 944.16 258.81 L 930.89 243.19 L 916.55 228.33 L 901.18 214.26 L 884.85 201.02 L 867.59 188.63 Z" fill="url(#goldArc)" opacity="0.92"/><path d="M 194.96 778.22 L 180.89 768.15 L 167.66 757.49 L 155.31 746.28 L 143.86 734.54 L 133.32 722.30 L 123.70 709.60 L 115.03 696.46 L 107.30 682.90 L 100.54 668.94 L 94.75 654.63 L 89.94 639.96 L 86.12 624.97 L 83.30 609.69 L 81.49 594.12 L 80.69 578.32 L 80.92 562.29 L 82.18 546.07 L 84.49 529.70 L 87.85 513.21 L 92.25 496.65 L 97.70 480.04 L 104.19 463.45 L 111.72 446.90 L 120.28 430.46 L 129.84 414.15 L 140.40 398.04 L 151.93 382.17 L 164.39 366.57 L 177.78 351.30 L 192.05 336.41 L 207.16 321.93 L 223.09 307.90 L 239.79 294.37 L 257.22 281.38 L 275.33 268.96 L 294.07 257.15 L 313.41 245.97 L 333.28 235.47 L 353.64 225.67 L 374.44 216.59 L 395.61 208.27 L 417.11 200.72 L 438.88 193.96 L 460.85 188.02 L 482.98 182.91 L 505.21 178.64 L 527.48 175.22 L 549.73 172.66 L 571.90 170.97 L 593.94 170.16 L 615.79 170.21 L 637.40 171.14 L 658.70 172.93 L 679.65 175.59 L 700.20 179.10 L 720.28 183.45 L 739.86 188.64 L 758.88 194.64 L 777.29 201.45 L 795.06 209.04 L 812.15 217.39 L 828.50 226.49 L 844.08 236.31 L 858.86 246.83 L 872.81 258.02 L 885.88 269.85 L 898.06 282.32 L 909.32 295.37 L 919.63 309.00 L 928.96 323.17 L 937.29 337.85 L 944.61 353.01 L 950.88 368.63 L 956.10 384.67 L 960.24 401.09 L 963.29 417.87 L 965.23 434.95 L 966.05 452.31 L 965.75 469.90 L 964.31 487.68 L 975.22 489.26 L 977.86 470.89 L 979.32 452.54 L 979.58 434.26 L 978.65 416.10 L 976.51 398.10 L 973.16 380.32 L 968.62 362.81 L 962.87 345.61 L 955.95 328.78 L 947.85 312.36 L 938.61 296.41 L 928.24 280.97 L 916.77 266.09 L 904.23 251.81 L 890.67 238.17 L 876.11 225.21 L 860.59 212.97 L 844.17 201.48 L 826.88 190.76 L 808.77 180.85 L 789.89 171.78 L 770.29 163.56 L 750.02 156.21 L 729.13 149.76 L 707.69 144.21 L 685.73 139.58 L 663.32 135.89 L 640.52 133.13 L 617.38 131.31 L 593.95 130.44 L 570.31 130.52 L 546.50 131.55 L 522.58 133.52 L 498.62 136.43 L 474.66 140.27 L 450.78 145.04 L 427.03 150.72 L 403.46 157.29 L 380.14 164.74 L 357.12 173.06 L 334.45 182.23 L 312.20 192.21 L 290.41 203.00 L 269.14 214.57 L 248.45 226.88 L 228.37 239.92 L 208.97 253.65 L 190.29 268.05 L 172.37 283.07 L 155.27 298.70 L 139.02 314.88 L 123.66 331.60 L 109.25 348.81 L 95.81 366.48 L 83.38 384.56 L 72.01 403.02 L 61.72 421.82 L 52.54 440.91 L 44.51 460.25 L 37.66 479.79 L 32.01 499.49 L 27.59 519.30 L 24.41 539.16 L 22.51 559.02 L 21.88 578.82 L 22.55 598.51 L 24.52 618.02 L 27.79 637.29 L 32.34 656.26 L 38.18 674.87 L 45.28 693.06 L 53.63 710.76 L 63.18 727.92 L 73.91 744.49 L 85.78 760.42 L 98.75 775.67 L 112.77 790.18 L 127.80 803.94 L 143.79 816.89 L 160.69 829.02 Z" fill="url(#goldArc)" opacity="0.65"/><circle cx="755.2" cy="308.0" r="92.2" fill="white" opacity="0.55" filter="url(#specBlur)"/><ellipse cx="512.0" cy="450.56" rx="252.928" ry="175.10399999999998" transform="rotate(-18 512.0 450.56)" fill="none" stroke="#EFF0F3" stroke-width="1.5" opacity="0.35" filter="url(#specBlur)"/>
</svg>