<?xml version="1.0" encoding="UTF-8"?>
<svg xmlns="http://www.w3.org/2000/svg" viewBox="0 0 1024 1024" width="1024" height="1024">
<defs>
<linearGradient id="redArc" x1="3.0%" y1="32.9%" x2="97.0%" y2="67.1%">
<stop offset="0%" stop-color="#3B0A0A" stop-opacity="1"/>
<stop offset="18%" stop-color="#821515" stop-opacity="1"/>
<stop offset="45%" stop-color="#E22229" stop-opacity="1"/>
<stop offset="60%" stop-color="#FF2436" stop-opacity="1"/>
<stop offset="78%" stop-color="#E22229" stop-opacity="1"/>
</linearGradient>
<linearGradient id="blueArc" x1="0.8%" y1="58.7%" x2="99.2%" y2="41.3%">
<stop offset="0%" stop-color="#04223F" stop-opacity="1"/>
<stop offset="18%" stop-color="#0B549A" stop-opacity="1"/>
<stop offset="45%" stop-color="#157BCA" stop-opacity="1"/>
<stop offset="62%" stop-color="#3CAAFF" stop-opacity="1"/>
<stop offset="80%" stop-color="#157BCA" stop-opacity="1"/>
</linearGradient>
<linearGradient id="chromeCore" x1="71.1%" y1="4.7%" x2="28.9%" y2="95.3%">
<stop offset="0%" stop-color="#2B2E36" stop-opacity="1"/>
<stop offset="35%" stop-color="#B7ACAA" stop-opacity="1"/>
<stop offset="55%" stop-color="#EFF0F3" stop-opacity="1"/>
<stop offset="78%" stop-color="#6B6F7A" stop-opacity="1"/>
<stop offset="100%" stop-color="#1A1C22" stop-opacity="1"/>
</linearGradient>
<filter id="glow_red" x="-50%" y="-50%" width="200%" height="200%">
  <feDropShadow dx="0" dy="0" stdDeviation="23.0" flood-color="#FF2436" flood-opacity="0.55"/>
</filter>
<filter id="glow_blue" x="-50%" y="-50%" width="200%" height="200%">
  <feDropShadow dx="0" dy="0" stdDeviation="22.0" flood-color="#3CAAFF" flood-opacity="0.5"/>
</filter>
<filter id="glow_white" x="-50%" y="-50%" width="200%" height="200%">
  <feDropShadow dx="0" dy="0" stdDeviation="11.0" flood-color="#FFFFFF" flood-opacity="0.25"/>
</filter>
<filter id="iconShadow" x="-50%" y="-50%" width="200%" height="200%">
  <feDropShadow dx="0.0" dy="14.0" stdDeviation="14.0" flood-color="#000000" flood-opacity="0.55"/>
</filter>
<filter id="specBlur" x="-50%" y="-50%" width="200%" height="200%">
  <feGaussianBlur stdDeviation="4.0"/>
</filter>
</defs>
<ellipse cx="512.0" cy="512.0" rx="518.1440000000001" ry="382.97600000000006" transform="rotate(-18 512.0 512.0)" fill="#FF2436" opacity="0.33" filter="url(#glow_red)"/><ellipse cx="512.0" cy="512.0" rx="518.1440000000001" ry="382.97600000000006" transform="rotate(-18 512.0 512.0)" fill="#3CAAFF" opacity="0.3" filter="url(#glow_blue)"/><ellipse cx="512.0" cy="512.0" rx="518.1440000000001" ry="382.97600000000006" transform="rotate(-18 512.0 512.0)" fill="#FFFFFF" opacity="0.15" filter="url(#glow_white)"/><ellipse cx="512.0" cy="512.0" rx="471.04" ry="348.16" transform="rotate(-18 512.0 512.0)" fill="#050405" opacity="0.6" filter="url(#iconShadow)"/><path d="M 199.25 771.87 L 185.53 762.05 L 172.65 751.68 L 160.63 740.79 L 149.50 729.40 L 139.26 717.54 L 129.93 705.24 L 121.51 692.52 L 114.01 679.41 L 107.45 665.93 L 101.83 652.09 L 97.14 637.92 L 93.42 623.43 L 90.65 608.64 L 88.85 593.58 L 88.04 578.25 L 88.22 562.70 L 89.41 546.93 L 91.61 531.00 L 94.83 514.93 L 99.07 498.75 L 104.35 482.52 L 110.65 466.27 L 117.97 450.04 L 126.31 433.89 L 135.65 417.85 L 145.97 401.99 L 157.26 386.33 L 169.49 370.94 L 182.62 355.86 L 196.64 341.12 L 211.51 326.78 L 227.19 312.89 L 243.64 299.47 L 260.82 286.56 L 278.69 274.22 L 297.19 262.47 L 316.28 251.34 L 335.92 240.88 L 356.04 231.10 L 376.60 222.03 L 397.55 213.71 L 418.82 206.15 L 440.36 199.37 L 462.11 193.39 L 484.02 188.24 L 506.04 183.91 L 528.09 180.43 L 550.13 177.80 L 572.10 176.03 L 593.94 175.12 L 615.60 175.07 L 637.01 175.89 L 658.13 177.56 L 678.89 180.09 L 699.26 183.46 L 719.18 187.66 L 738.59 192.69 L 757.45 198.53 L 775.72 205.16 L 793.35 212.56 L 810.30 220.72 L 826.54 229.62 L 842.02 239.23 L 856.71 249.53 L 870.57 260.50 L 883.59 272.11 L 895.73 284.34 L 906.96 297.17 L 917.25 310.57 L 926.60 324.52 L 934.96 338.98 L 942.32 353.94 L 948.67 369.36 L 953.97 385.21 L 958.21 401.46 L 961.37 418.09 L 963.43 435.04 L 964.39 452.29 L 964.23 469.78 L 962.94 487.48 L 976.59 489.45 L 979.38 471.01 L 980.98 452.56 L 981.38 434.17 L 980.57 415.88 L 978.54 397.73 L 975.30 379.78 L 970.83 362.08 L 965.16 344.68 L 958.28 327.64 L 950.21 311.01 L 940.98 294.84 L 930.60 279.17 L 919.11 264.06 L 906.53 249.55 L 892.90 235.69 L 878.26 222.51 L 862.66 210.05 L 846.13 198.35 L 828.72 187.43 L 810.48 177.33 L 791.46 168.07 L 771.71 159.67 L 751.29 152.16 L 730.24 145.55 L 708.62 139.85 L 686.49 135.08 L 663.90 131.26 L 640.91 128.38 L 617.58 126.45 L 593.96 125.48 L 570.11 125.46 L 546.09 126.41 L 521.97 128.31 L 497.79 131.16 L 473.62 134.95 L 449.52 139.67 L 425.55 145.31 L 401.76 151.86 L 378.20 159.30 L 354.95 167.62 L 332.05 176.80 L 309.56 186.81 L 287.54 197.63 L 266.03 209.25 L 245.09 221.62 L 224.77 234.74 L 205.12 248.56 L 186.19 263.06 L 168.02 278.21 L 150.67 293.98 L 134.17 310.33 L 118.57 327.23 L 103.91 344.64 L 90.23 362.53 L 77.58 380.86 L 65.97 399.59 L 55.46 418.68 L 46.08 438.09 L 37.86 457.77 L 30.83 477.69 L 25.03 497.78 L 20.47 518.00 L 17.19 538.29 L 15.21 558.61 L 14.53 578.88 L 15.19 599.05 L 17.17 619.06 L 20.49 638.83 L 25.14 658.30 L 31.11 677.40 L 38.38 696.07 L 46.92 714.24 L 56.70 731.86 L 67.68 748.86 L 79.84 765.19 L 93.11 780.81 L 107.45 795.67 L 122.82 809.74 L 139.15 822.98 L 156.41 835.37 Z" fill="url(#blueArc)" opacity="0.9"/><ellipse cx="512.0" cy="512.0" rx="368.64" ry="266.24" transform="rotate(-18 512.0 512.0)" fill="none" stroke="url(#chromeCore)" stroke-width="204.8" opacity="0.95"/><path d="M 824.75 252.13 L 838.47 261.95 L 851.35 272.32 L 863.37 283.21 L 874.50 294.60 L 884.74 306.46 L 894.07 318.76 L 902.49 331.48 L 909.99 344.59 L 916.55 358.07 L 922.17 371.91 L 926.86 386.08 L 930.58 400.57 L 933.35 415.36 L 935.15 430.42 L 935.96 445.75 L 935.78 461.30 L 934.59 477.07 L 932.39 493.00 L 929.17 509.07 L 924.93 525.25 L 919.65 541.48 L 913.35 557.73 L 906.03 573.96 L 897.69 590.11 L 888.35 606.15 L 878.03 622.01 L 866.74 637.67 L 854.51 653.06 L 841.38 668.14 L 827.36 682.88 L 812.49 697.22 L 796.81 711.11 L 780.36 724.53 L 763.18 737.44 L 745.31 749.78 L 726.81 761.53 L 707.72 772.66 L 688.08 783.12 L 667.96 792.90 L 647.40 801.97 L 626.45 810.29 L 605.18 817.85 L 583.64 824.63 L 561.89 830.61 L 539.98 835.76 L 517.96 840.09 L 495.91 843.57 L 473.87 846.20 L 451.90 847.97 L 430.06 848.88 L 408.40 848.93 L 386.99 848.11 L 365.87 846.44 L 345.11 843.91 L 324.74 840.54 L 304.82 836.34 L 285.41 831.31 L 266.55 825.47 L 248.28 818.84 L 230.65 811.44 L 213.70 803.28 L 197.46 794.38 L 181.98 784.77 L 167.29 774.47 L 153.43 763.50 L 140.41 751.89 L 128.27 739.66 L 117.04 726.83 L 106.75 713.43 L 97.40 699.48 L 89.04 685.02 L 81.68 670.06 L 75.33 654.64 L 70.03 638.79 L 65.79 622.54 L 62.63 605.91 L 60.57 588.96 L 59.61 571.71 L 59.77 554.22 L 61.06 536.52 L 47.41 534.55 L 44.62 552.99 L 43.02 571.44 L 42.62 589.83 L 43.43 608.12 L 45.46 626.27 L 48.70 644.22 L 53.17 661.92 L 58.84 679.32 L 65.72 696.36 L 73.79 712.99 L 83.02 729.16 L 93.40 744.83 L 104.89 759.94 L 117.47 774.45 L 131.10 788.31 L 145.74 801.49 L 161.34 813.95 L 177.87 825.65 L 195.28 836.57 L 213.52 846.67 L 232.54 855.93 L 252.29 864.33 L 272.71 871.84 L 293.76 878.45 L 315.38 884.15 L 337.51 888.92 L 360.10 892.74 L 383.09 895.62 L 406.42 897.55 L 430.04 898.52 L 453.89 898.54 L 477.91 897.59 L 502.03 895.69 L 526.21 892.84 L 550.38 889.05 L 574.48 884.33 L 598.45 878.69 L 622.24 872.14 L 645.80 864.70 L 669.05 856.38 L 691.95 847.20 L 714.44 837.19 L 736.46 826.37 L 757.97 814.75 L 778.91 802.38 L 799.23 789.26 L 818.88 775.44 L 837.81 760.94 L 855.98 745.79 L 873.33 730.02 L 889.83 713.67 L 905.43 696.77 L 920.09 679.36 L 933.77 661.47 L 946.42 643.14 L 958.03 624.41 L 968.54 605.32 L 977.92 585.91 L 986.14 566.23 L 993.17 546.31 L 998.97 526.22 L 1003.53 506.00 L 1006.81 485.71 L 1008.79 465.39 L 1009.47 445.12 L 1008.81 424.95 L 1006.83 404.94 L 1003.51 385.17 L 998.86 365.70 L 992.89 346.60 L 985.62 327.93 L 977.08 309.76 L 967.30 292.14 L 956.32 275.14 L 944.16 258.81 L 930.89 243.19 L 916.55 228.33 L 901.18 214.26 L 884.85 201.02 L 867.59 188.63 Z" fill="url(#redArc)" opacity="0.92"/><circle cx="755.2" cy="308.0" r="92.2" fill="white" opacity="0.55" filter="url(#specBlur)"/><ellipse cx="512.0" cy="450.56" rx="252.928" ry="175.10399999999998" transform="rotate(-18 512.0 450.56)" fill="none" stroke="#EFF0F3" stroke-width="1.5" opacity="0.35" filter="url(#specBlur)"/><circle cx="591.0" cy="890.2" r="1.4" fill="white" opacity="0.15179998562001187"/><circle cx="265.8" cy="946.4" r="1.0" fill="white" opacity="0.37779197056621067"/><circle cx="442.0" cy="846.0" r="1.3" fill="white" opacity="0.19101832322408785"/><circle cx="972.9" cy="251.9" r="1.2" fill="white" opacity="0.37567189337740237"/><circle cx="720.4" cy="279.6" r="1.2" fill="white" opacity="0.25181337530108316"/><circle cx="544.7" cy="1014.8" r="1.7" fill="white" opacity="0.4407799767471393"/><circle cx="424.4" cy="795.4" r="1.6" fill="white" opacity="0.38960120224831235"/><circle cx="972.6" cy="624.5" r="1.0" fill="white" opacity="0.4401897672605549"/><circle cx="904.5" cy="445.6" r="1.3" fill="white" opacity="0.41681595998941834"/><circle cx="321.1" cy="834.5" r="1.9" fill="white" opacity="0.41489552501908544"/><circle cx="559.3" cy="-53.9" r="1.4" fill="white" opacity="0.20399487174321948"/><circle cx="600.0" cy="875.4" r="1.3" fill="white" opacity="0.17073009605262388"/><circle cx="582.8" cy="803.3" r="1.8" fill="white" opacity="0.18161950190922144"/><circle cx="813.3" cy="205.8" r="1.6" fill="white" opacity="0.3484561431801029"/><circle cx="792.2" cy="468.8" r="1.7" fill="white" opacity="0.29087649574035646"/><circle cx="674.0" cy="1019.5" r="2.7" fill="white" opacity="0.422597815576673"/><circle cx="440.3" cy="920.9" r="2.6" fill="white" opacity="0.4292865496433875"/><circle cx="1007.5" cy="240.6" r="2.4" fill="white" opacity="0.43740295973705723"/>
</svg>