<?xml version="1.0" encoding="UTF-8"?>
<svg xmlns="http://www.w3.org/2000/svg" viewBox="0 0 512 512" width="512" height="512">
<defs>
<linearGradient id="redArc" x1="3.0%" y1="32.9%" x2="97.0%" y2="67.1%">
<stop offset="0%" stop-color="#3B0A0A" stop-opacity="1"/>
<stop offset="18%" stop-color="#821515" stop-opacity="1"/>
<stop offset="45%" stop-color="#E22229" stop-opacity="1"/>
<stop offset="60%" stop-color="#FF2436" stop-opacity="1"/>
<stop offset="78%" stop-color="#E22229" stop-opacity="1"/>
</linearGradient>
<linearGradient id="blueArc" x1="0.8%" y1="58.7%" x2="99.2%" y2="41.3%">
<stop offset="0%" stop-color="#04223F" stop-opacity="1"/>
<stop offset="18%" stop-color="#0B549A" stop-opacity="1"/>
<stop offset="45%" stop-color="#157BCA" stop-opacity="1"/>
<stop offset="62%" stop-color="#3CAAFF" stop-opacity="1"/>
<stop offset="80%" stop-color="#157BCA" stop-opacity="1"/>
</linearGradient>
<linearGradient id="chromeCore" x1="71.1%" y1="4.7%" x2="28.9%" y2="95.3%">
<stop offset="0%" stop-color="#2B2E36" stop-opacity="1"/>
<stop offset="35%" stop-color="#B7ACAA" stop-opacity="1"/>
<stop offset="55%" stop-color="#EFF0F3" stop-opacity="1"/>
<stop offset="78%" stop-color="#6B6F7A" stop-opacity="1"/>
<stop offset="100%" stop-color="#1A1C22" stop-opacity="1"/>
</linearGradient>
<filter id="iconShadow" x="-50%" y="-50%" width="200%" height="200%">
  <feDropShadow dx="0.0" dy="7.0" stdDeviation="7.0" flood-color="#000000" flood-opacity="0.55"/>
</filter>
<filter id="specBlur" x="-50%" y="-50%" width="200%" height="200%">
  <feGaussianBlur stdDeviation="2.0"/>
</filter>
</defs>
<ellipse cx="256.0" cy="256.0" rx="235.52" ry="174.08" transform="rotate(-18 256.0 256.0)" fill="#050405" opacity="0.6" filter="url(#iconShadow)"/><path d="M 99.62 385.94 L 92.76 381.03 L 86.32 375.84 L 80.32 370.39 L 74.75 364.70 L 69.63 358.77 L 64.96 352.62 L 60.75 346.26 L 57.01 339.71 L 53.73 332.97 L 50.91 326.05 L 48.57 318.96 L 46.71 311.72 L 45.32 304.32 L 44.43 296.79 L 44.02 289.13 L 44.11 281.35 L 44.70 273.47 L 45.80 265.50 L 47.41 257.46 L 49.54 249.38 L 52.17 241.26 L 55.32 233.13 L 58.99 225.02 L 63.16 216.94 L 67.83 208.93 L 72.99 200.99 L 78.63 193.17 L 84.74 185.47 L 91.31 177.93 L 98.32 170.56 L 105.76 163.39 L 113.60 156.44 L 121.82 149.73 L 130.41 143.28 L 139.34 137.11 L 148.59 131.23 L 158.14 125.67 L 167.96 120.44 L 178.02 115.55 L 188.30 111.02 L 198.77 106.85 L 209.41 103.07 L 220.18 99.68 L 231.06 96.70 L 242.01 94.12 L 253.02 91.96 L 264.05 90.22 L 275.07 88.90 L 286.05 88.02 L 296.97 87.56 L 307.80 87.54 L 318.50 87.94 L 329.06 88.78 L 339.45 90.04 L 349.63 91.73 L 359.59 93.83 L 369.29 96.35 L 378.73 99.26 L 387.86 102.58 L 396.68 106.28 L 405.15 110.36 L 413.27 114.81 L 421.01 119.61 L 428.35 124.76 L 435.29 130.25 L 441.80 136.06 L 447.86 142.17 L 453.48 148.59 L 458.63 155.29 L 463.30 162.26 L 467.48 169.49 L 471.16 176.97 L 474.33 184.68 L 476.98 192.60 L 479.10 200.73 L 480.68 209.04 L 481.72 217.52 L 482.20 226.14 L 482.12 234.89 L 481.47 243.74 L 488.29 244.73 L 489.69 235.50 L 490.49 226.28 L 490.69 217.09 L 490.28 207.94 L 489.27 198.86 L 487.65 189.89 L 485.42 181.04 L 482.58 172.34 L 479.14 163.82 L 475.11 155.51 L 470.49 147.42 L 465.30 139.59 L 459.55 132.03 L 453.26 124.78 L 446.45 117.84 L 439.13 111.25 L 431.33 105.03 L 423.06 99.17 L 414.36 93.72 L 405.24 88.67 L 395.73 84.04 L 385.86 79.84 L 375.64 76.08 L 365.12 72.77 L 354.31 69.93 L 343.25 67.54 L 331.95 65.63 L 320.45 64.19 L 308.79 63.22 L 296.98 62.74 L 285.05 62.73 L 273.05 63.20 L 260.98 64.15 L 248.90 65.58 L 236.81 67.47 L 224.76 69.83 L 212.77 72.65 L 200.88 75.93 L 189.10 79.65 L 177.48 83.81 L 166.03 88.40 L 154.78 93.40 L 143.77 98.82 L 133.01 104.62 L 122.54 110.81 L 112.38 117.37 L 102.56 124.28 L 93.09 131.53 L 84.01 139.11 L 75.33 146.99 L 67.09 155.17 L 59.29 163.62 L 51.96 172.32 L 45.12 181.27 L 38.79 190.43 L 32.99 199.80 L 27.73 209.34 L 23.04 219.05 L 18.93 228.89 L 15.42 238.84 L 12.51 248.89 L 10.24 259.00 L 8.60 269.15 L 7.60 279.30 L 7.27 289.44 L 7.59 299.53 L 8.59 309.53 L 10.25 319.41 L 12.57 329.15 L 15.56 338.70 L 19.19 348.04 L 23.46 357.12 L 28.35 365.93 L 33.84 374.43 L 39.92 382.59 L 46.55 390.40 L 53.73 397.84 L 61.41 404.87 L 69.58 411.49 L 78.20 417.68 Z" fill="url(#blueArc)" opacity="0.9"/><ellipse cx="256.0" cy="256.0" rx="184.32" ry="133.12" transform="rotate(-18 256.0 256.0)" fill="none" stroke="url(#chromeCore)" stroke-width="102.4" opacity="0.95"/><path d="M 412.38 126.06 L 419.24 130.97 L 425.68 136.16 L 431.68 141.61 L 437.25 147.30 L 442.37 153.23 L 447.04 159.38 L 451.25 165.74 L 454.99 172.29 L 458.27 179.03 L 461.09 185.95 L 463.43 193.04 L 465.29 200.28 L 466.68 207.68 L 467.57 215.21 L 467.98 222.87 L 467.89 230.65 L 467.30 238.53 L 466.20 246.50 L 464.59 254.54 L 462.46 262.62 L 459.83 270.74 L 456.68 278.87 L 453.01 286.98 L 448.84 295.06 L 444.17 303.07 L 439.01 311.01 L 433.37 318.83 L 427.26 326.53 L 420.69 334.07 L 413.68 341.44 L 406.24 348.61 L 398.40 355.56 L 390.18 362.27 L 381.59 368.72 L 372.66 374.89 L 363.41 380.77 L 353.86 386.33 L 344.04 391.56 L 333.98 396.45 L 323.70 400.98 L 313.23 405.15 L 302.59 408.93 L 291.82 412.32 L 280.94 415.30 L 269.99 417.88 L 258.98 420.04 L 247.95 421.78 L 236.93 423.10 L 225.95 423.98 L 215.03 424.44 L 204.20 424.46 L 193.50 424.06 L 182.94 423.22 L 172.55 421.96 L 162.37 420.27 L 152.41 418.17 L 142.71 415.65 L 133.27 412.74 L 124.14 409.42 L 115.32 405.72 L 106.85 401.64 L 98.73 397.19 L 90.99 392.39 L 83.65 387.24 L 76.71 381.75 L 70.20 375.94 L 64.14 369.83 L 58.52 363.41 L 53.37 356.71 L 48.70 349.74 L 44.52 342.51 L 40.84 335.03 L 37.67 327.32 L 35.02 319.40 L 32.90 311.27 L 31.32 302.96 L 30.28 294.48 L 29.80 285.86 L 29.88 277.11 L 30.53 268.26 L 23.71 267.27 L 22.31 276.50 L 21.51 285.72 L 21.31 294.91 L 21.72 304.06 L 22.73 313.14 L 24.35 322.11 L 26.58 330.96 L 29.42 339.66 L 32.86 348.18 L 36.89 356.49 L 41.51 364.58 L 46.70 372.41 L 52.45 379.97 L 58.74 387.22 L 65.55 394.16 L 72.87 400.75 L 80.67 406.97 L 88.94 412.83 L 97.64 418.28 L 106.76 423.33 L 116.27 427.96 L 126.14 432.16 L 136.36 435.92 L 146.88 439.23 L 157.69 442.07 L 168.75 444.46 L 180.05 446.37 L 191.55 447.81 L 203.21 448.78 L 215.02 449.26 L 226.95 449.27 L 238.95 448.80 L 251.02 447.85 L 263.10 446.42 L 275.19 444.53 L 287.24 442.17 L 299.23 439.35 L 311.12 436.07 L 322.90 432.35 L 334.52 428.19 L 345.97 423.60 L 357.22 418.60 L 368.23 413.18 L 378.99 407.38 L 389.46 401.19 L 399.62 394.63 L 409.44 387.72 L 418.91 380.47 L 427.99 372.89 L 436.67 365.01 L 444.91 356.83 L 452.71 348.38 L 460.04 339.68 L 466.88 330.73 L 473.21 321.57 L 479.01 312.20 L 484.27 302.66 L 488.96 292.95 L 493.07 283.11 L 496.58 273.16 L 499.49 263.11 L 501.76 253.00 L 503.40 242.85 L 504.40 232.70 L 504.73 222.56 L 504.41 212.47 L 503.41 202.47 L 501.75 192.59 L 499.43 182.85 L 496.44 173.30 L 492.81 163.96 L 488.54 154.88 L 483.65 146.07 L 478.16 137.57 L 472.08 129.41 L 465.45 121.60 L 458.27 114.16 L 450.59 107.13 L 442.42 100.51 L 433.80 94.32 Z" fill="url(#redArc)" opacity="0.92"/><circle cx="377.6" cy="154.0" r="46.1" fill="white" opacity="0.55" filter="url(#specBlur)"/><ellipse cx="256.0" cy="225.28" rx="126.464" ry="87.55199999999999" transform="rotate(-18 256.0 225.28)" fill="none" stroke="#EFF0F3" stroke-width="1.5" opacity="0.35" filter="url(#specBlur)"/><circle cx="295.5" cy="445.1" r="0.7" fill="white" opacity="0.15179998562001187"/><circle cx="132.9" cy="473.2" r="0.5" fill="white" opacity="0.37779197056621067"/><circle cx="221.0" cy="423.0" r="0.6" fill="white" opacity="0.19101832322408785"/><circle cx="486.5" cy="126.0" r="0.6" fill="white" opacity="0.37567189337740237"/><circle cx="360.2" cy="139.8" r="0.6" fill="white" opacity="0.25181337530108316"/><circle cx="272.4" cy="507.4" r="0.9" fill="white" opacity="0.4407799767471393"/><circle cx="212.2" cy="397.7" r="0.8" fill="white" opacity="0.38960120224831235"/><circle cx="486.3" cy="312.3" r="0.5" fill="white" opacity="0.4401897672605549"/><circle cx="452.3" cy="222.8" r="0.6" fill="white" opacity="0.41681595998941834"/>
</svg>