<?xml version="1.0" encoding="UTF-8"?>
<svg xmlns="http://www.w3.org/2000/svg" viewBox="0 0 512 512" width="512" height="512">
<ellipse cx="256.0" cy="256.0" rx="184.32" ry="133.12" transform="rotate(-18 256.0 256.0)" fill="none" stroke="black" stroke-width="102.4"/>
<path d="M 412.38 126.06 L 419.24 130.97 L 425.68 136.16 L 431.68 141.61 L 437.25 147.30 L 442.37 153.23 L 447.04 159.38 L 451.25 165.74 L 454.99 172.29 L 458.27 179.03 L 461.09 185.95 L 463.43 193.04 L 465.29 200.28 L 466.68 207.68 L 467.57 215.21 L 467.98 222.87 L 467.89 230.65 L 467.30 238.53 L 466.20 246.50 L 464.59 254.54 L 462.46 262.62 L 459.83 270.74 L 456.68 278.87 L 453.01 286.98 L 448.84 295.06 L 444.17 303.07 L 439.01 311.01 L 433.37 318.83 L 427.26 326.53 L 420.69 334.07 L 413.68 341.44 L 406.24 348.61 L 398.40 355.56 L 390.18 362.27 L 381.59 368.72 L 372.66 374.89 L 363.41 380.77 L 353.86 386.33 L 344.04 391.56 L 333.98 396.45 L 323.70 400.98 L 313.23 405.15 L 302.59 408.93 L 291.82 412.32 L 280.94 415.30 L 269.99 417.88 L 258.98 420.04 L 247.95 421.78 L 236.93 423.10 L 225.95 423.98 L 215.03 424.44 L 204.20 424.46 L 193.50 424.06 L 182.94 423.22 L 172.55 421.96 L 162.37 420.27 L 152.41 418.17 L 142.71 415.65 L 133.27 412.74 L 124.14 409.42 L 115.32 405.72 L 106.85 401.64 L 98.73 397.19 L 90.99 392.39 L 83.65 387.24 L 76.71 381.75 L 70.20 375.94 L 64.14 369.83 L 58.52 363.41 L 53.37 356.71 L 48.70 349.74 L 44.52 342.51 L 40.84 335.03 L 37.67 327.32 L 35.02 319.40 L 32.90 311.27 L 31.32 302.96 L 30.28 294.48 L 29.80 285.86 L 29.88 277.11 L 30.53 268.26 L 23.71 267.27 L 22.31 276.50 L 21.51 285.72 L 21.31 294.91 L 21.72 304.06 L 22.73 313.14 L 24.35 322.11 L 26.58 330.96 L 29.42 339.66 L 32.86 348.18 L 36.89 356.49 L 41.51 364.58 L 46.70 372.41 L 52.45 379.97 L 58.74 387.22 L 65.55 394.16 L 72.87 400.75 L 80.67 406.97 L 88.94 412.83 L 97.64 418.28 L 106.76 423.33 L 116.27 427.96 L 126.14 432.16 L 136.36 435.92 L 146.88 439.23 L 157.69 442.07 L 168.75 444.46 L 180.05 446.37 L 191.55 447.81 L 203.21 448.78 L 215.02 449.26 L 226.95 449.27 L 238.95 448.80 L 251.02 447.85 L 263.10 446.42 L 275.19 444.53 L 287.24 442.17 L 299.23 439.35 L 311.12 436.07 L 322.90 432.35 L 334.52 428.19 L 345.97 423.60 L 357.22 418.60 L 368.23 413.18 L 378.99 407.38 L 389.46 401.19 L 399.62 394.63 L 409.44 387.72 L 418.91 380.47 L 427.99 372.89 L 436.67 365.01 L 444.91 356.83 L 452.71 348.38 L 460.04 339.68 L 466.88 330.73 L 473.21 321.57 L 479.01 312.20 L 484.27 302.66 L 488.96 292.95 L 493.07 283.11 L 496.58 273.16 L 499.49 263.11 L 501.76 253.00 L 503.40 242.85 L 504.40 232.70 L 504.73 222.56 L 504.41 212.47 L 503.41 202.47 L 501.75 192.59 L 499.43 182.85 L 496.44 173.30 L 492.81 163.96 L 488.54 154.88 L 483.65 146.07 L 478.16 137.57 L 472.08 129.41 L 465.45 121.60 L 458.27 114.16 L 450.59 107.13 L 442.42 100.51 L 433.80 94.32 Z" fill="black"/>
<path d="M 97.48 389.11 L 90.44 384.07 L 83.83 378.74 L 77.66 373.14 L 71.93 367.27 L 66.66 361.15 L 61.85 354.80 L 57.51 348.23 L 53.65 341.45 L 50.27 334.47 L 47.38 327.31 L 44.97 319.98 L 43.06 312.49 L 41.65 304.84 L 40.74 297.06 L 40.34 289.16 L 40.46 281.14 L 41.09 273.03 L 42.25 264.85 L 43.92 256.61 L 46.12 248.32 L 48.85 240.02 L 52.10 231.72 L 55.86 223.45 L 60.14 215.23 L 64.92 207.08 L 70.20 199.02 L 75.96 191.08 L 82.20 183.29 L 88.89 175.65 L 96.02 168.20 L 103.58 160.96 L 111.55 153.95 L 119.89 147.19 L 128.61 140.69 L 137.66 134.48 L 147.04 128.57 L 156.70 122.99 L 166.64 117.73 L 176.82 112.83 L 187.22 108.29 L 197.81 104.13 L 208.55 100.36 L 219.44 96.98 L 230.43 94.01 L 241.49 91.45 L 252.61 89.32 L 263.74 87.61 L 274.86 86.33 L 285.95 85.49 L 296.97 85.08 L 307.90 85.10 L 318.70 85.57 L 329.35 86.46 L 339.83 87.79 L 350.10 89.55 L 360.14 91.73 L 369.93 94.32 L 379.44 97.32 L 388.65 100.72 L 397.53 104.52 L 406.07 108.70 L 414.25 113.25 L 422.04 118.16 L 429.43 123.41 L 436.40 129.01 L 442.94 134.93 L 449.03 141.16 L 454.66 147.69 L 459.81 154.50 L 464.48 161.58 L 468.65 168.92 L 472.30 176.51 L 475.44 184.31 L 478.05 192.33 L 480.12 200.55 L 481.64 208.93 L 482.61 217.48 L 483.03 226.16 L 482.87 234.95 L 482.15 243.84 L 487.61 244.63 L 488.93 235.44 L 489.66 226.27 L 489.79 217.13 L 489.32 208.05 L 488.25 199.05 L 486.58 190.16 L 484.31 181.40 L 481.44 172.81 L 477.97 164.39 L 473.93 156.18 L 469.30 148.20 L 464.12 140.49 L 458.38 133.04 L 452.12 125.90 L 445.33 119.08 L 438.05 112.61 L 430.30 106.48 L 422.08 100.74 L 413.44 95.38 L 404.38 90.43 L 394.94 85.89 L 385.14 81.78 L 375.01 78.11 L 364.57 74.88 L 353.84 72.11 L 342.87 69.79 L 331.66 67.94 L 320.26 66.56 L 308.69 65.66 L 296.98 65.22 L 285.15 65.26 L 273.25 65.77 L 261.29 66.76 L 249.31 68.22 L 237.33 70.14 L 225.39 72.52 L 213.51 75.36 L 201.73 78.64 L 190.07 82.37 L 178.56 86.53 L 167.23 91.11 L 156.10 96.11 L 145.21 101.50 L 134.57 107.28 L 124.22 113.44 L 114.19 119.96 L 104.49 126.83 L 95.14 134.02 L 86.19 141.54 L 77.63 149.35 L 69.51 157.44 L 61.83 165.80 L 54.62 174.41 L 47.90 183.24 L 41.69 192.28 L 36.00 201.51 L 30.86 210.91 L 26.27 220.45 L 22.26 230.12 L 18.83 239.90 L 16.00 249.75 L 13.79 259.65 L 12.21 269.58 L 11.25 279.51 L 10.94 289.41 L 11.28 299.25 L 12.26 309.01 L 13.89 318.64 L 16.17 328.13 L 19.09 337.44 L 22.64 346.53 L 26.81 355.38 L 31.59 363.96 L 36.95 372.25 L 42.89 380.21 L 49.37 387.83 L 56.38 395.09 L 63.90 401.97 L 71.89 408.45 L 80.35 414.51 Z" fill="black"/>
</svg>