<?xml version="1.0" encoding="UTF-8"?>
<svg xmlns="http://www.w3.org/2000/svg" viewBox="0 0 1024 1024" width="1024" height="1024">
<defs>
<linearGradient id="appBg" x1="85.4%" y1="14.6%" x2="14.6%" y2="85.4%">
<stop offset="0%" stop-color="#0B0A0D" stop-opacity="1"/>
<stop offset="45%" stop-color="#121318" stop-opacity="1"/>
<stop offset="100%" stop-color="#050405" stop-opacity="1"/>
</linearGradient>

<linearGradient id="redArc" x1="3.0%" y1="32.9%" x2="97.0%" y2="67.1%">
<stop offset="0%" stop-color="#3B0A0A" stop-opacity="1"/>
<stop offset="18%" stop-color="#821515" stop-opacity="1"/>
<stop offset="45%" stop-color="#E22229" stop-opacity="1"/>
<stop offset="60%" stop-color="#FF2436" stop-opacity="1"/>
<stop offset="78%" stop-color="#E22229" stop-opacity="1"/>
</linearGradient>
<linearGradient id="blueArc" x1="0.8%" y1="58.7%" x2="99.2%" y2="41.3%">
<stop offset="0%" stop-color="#04223F" stop-opacity="1"/>
<stop offset="18%" stop-color="#0B549A" stop-opacity="1"/>
<stop offset="45%" stop-color="#157BCA" stop-opacity="1"/>
<stop offset="62%" stop-color="#3CAAFF" stop-opacity="1"/>
<stop offset="80%" stop-color="#157BCA" stop-opacity="1"/>
</linearGradient>
<linearGradient id="chromeCore" x1="71.1%" y1="4.7%" x2="28.9%" y2="95.3%">
<stop offset="0%" stop-color="#2B2E36" stop-opacity="1"/>
<stop offset="35%" stop-color="#B7ACAA" stop-opacity="1"/>
<stop offset="55%" stop-color="#EFF0F3" stop-opacity="1"/>
<stop offset="78%" stop-color="#6B6F7A" stop-opacity="1"/>
<stop offset="100%" stop-color="#1A1C22" stop-opacity="1"/>
</linearGradient>
<filter id="glow_red" x="-50%" y="-50%" width="200%" height="200%">
  <feDropShadow dx="0" dy="0" stdDeviation="16.5537109375" flood-color="#FF2436" flood-opacity="0.55"/>
</filter>
<filter id="glow_blue" x="-50%" y="-50%" width="200%" height="200%">
  <feDropShadow dx="0" dy="0" stdDeviation="15.833984375" flood-color="#3CAAFF" flood-opacity="0.5"/>
</filter>
<filter id="glow_white" x="-50%" y="-50%" width="200%" height="200%">
  <feDropShadow dx="0" dy="0" stdDeviation="7.9169921875" flood-color="#FFFFFF" flood-opacity="0.25"/>
</filter>
<filter id="iconShadow" x="-50%" y="-50%" width="200%" height="200%">
  <feDropShadow dx="0.0" dy="10.076171875" stdDeviation="10.076171875" flood-color="#000000" flood-opacity="0.55"/>
</filter>
<filter id="specBlur" x="-50%" y="-50%" width="200%" height="200%">
  <feGaussianBlur stdDeviation="2.87890625"/>
</filter>

<filter id="edgeGlow" x="-50%" y="-50%" width="200%" height="200%">
  <feDropShadow dx="0" dy="0" stdDeviation="30.72" flood-color="#FFFFFF" flood-opacity="0.22"/>
</filter>
<clipPath id="appClip"><rect width="1024" height="1024" rx="225.3"/></clipPath>
</defs>
<g clip-path="url(#appClip)">
<rect width="1024" height="1024" rx="225.3" fill="url(#appBg)"/>
<rect x="2" y="2" width="1020" height="1020" rx="223.3" fill="none" stroke="#23252C" stroke-width="2" opacity="0.9"/>
<g transform="translate(143.4, 122.9)">

<ellipse cx="368.5" cy="368.5" rx="372.9220000000001" ry="275.63800000000003" transform="rotate(-18 368.5 368.5)" fill="#FF2436" opacity="0.33" filter="url(#glow_red)"/><ellipse cx="368.5" cy="368.5" rx="372.9220000000001" ry="275.63800000000003" transform="rotate(-18 368.5 368.5)" fill="#3CAAFF" opacity="0.3" filter="url(#glow_blue)"/><ellipse cx="368.5" cy="368.5" rx="372.9220000000001" ry="275.63800000000003" transform="rotate(-18 368.5 368.5)" fill="#FFFFFF" opacity="0.15" filter="url(#glow_white)"/><ellipse cx="368.5" cy="368.5" rx="339.02000000000004" ry="250.58" transform="rotate(-18 368.5 368.5)" fill="#050405" opacity="0.6" filter="url(#iconShadow)"/><path d="M 143.40 555.54 L 133.53 548.47 L 124.26 541.01 L 115.61 533.16 L 107.60 524.97 L 100.23 516.43 L 93.51 507.58 L 87.45 498.43 L 82.06 488.99 L 77.34 479.29 L 73.29 469.33 L 69.92 459.13 L 67.23 448.70 L 65.24 438.06 L 63.95 427.21 L 63.36 416.18 L 63.49 404.99 L 64.35 393.64 L 65.93 382.17 L 68.25 370.61 L 71.30 358.97 L 75.10 347.28 L 79.64 335.58 L 84.91 323.91 L 90.91 312.28 L 97.63 300.74 L 105.06 289.32 L 113.18 278.06 L 121.98 266.98 L 131.44 256.12 L 141.53 245.52 L 152.23 235.20 L 163.52 225.19 L 175.36 215.53 L 187.72 206.25 L 200.58 197.36 L 213.90 188.91 L 227.64 180.90 L 241.77 173.36 L 256.25 166.33 L 271.05 159.80 L 286.12 153.81 L 301.43 148.37 L 316.94 143.49 L 332.59 139.19 L 348.37 135.48 L 364.21 132.37 L 380.08 129.86 L 395.95 127.97 L 411.76 126.69 L 427.48 126.04 L 443.06 126.00 L 458.47 126.59 L 473.67 127.79 L 488.62 129.61 L 503.28 132.04 L 517.61 135.07 L 531.58 138.68 L 545.16 142.89 L 558.31 147.66 L 571.00 152.99 L 583.20 158.86 L 594.88 165.26 L 606.02 172.18 L 616.59 179.59 L 626.58 187.49 L 635.94 195.84 L 644.68 204.65 L 652.76 213.88 L 660.17 223.53 L 666.90 233.56 L 672.92 243.97 L 678.22 254.74 L 682.78 265.84 L 686.59 277.25 L 689.65 288.94 L 691.92 300.91 L 693.41 313.11 L 694.10 325.52 L 693.98 338.11 L 693.06 350.85 L 702.88 352.27 L 704.88 339.00 L 706.03 325.72 L 706.32 312.48 L 705.74 299.32 L 704.28 286.26 L 701.95 273.34 L 698.73 260.60 L 694.65 248.08 L 689.70 235.81 L 683.89 223.84 L 677.25 212.20 L 669.78 200.93 L 661.50 190.05 L 652.45 179.61 L 642.64 169.63 L 632.11 160.15 L 620.88 151.18 L 608.98 142.76 L 596.45 134.90 L 583.32 127.63 L 569.64 120.97 L 555.42 114.92 L 540.72 109.51 L 525.57 104.75 L 510.01 100.65 L 494.09 97.22 L 477.83 94.47 L 461.28 92.40 L 444.49 91.01 L 427.49 90.31 L 410.32 90.30 L 393.04 90.98 L 375.67 92.35 L 358.27 94.40 L 340.88 97.12 L 323.53 100.52 L 306.28 104.58 L 289.15 109.30 L 272.20 114.66 L 255.47 120.64 L 238.99 127.25 L 222.80 134.45 L 206.95 142.24 L 191.47 150.60 L 176.40 159.51 L 161.77 168.95 L 147.63 178.90 L 134.00 189.33 L 120.93 200.24 L 108.44 211.59 L 96.57 223.35 L 85.34 235.52 L 74.79 248.05 L 64.94 260.93 L 55.83 274.12 L 47.48 287.60 L 39.92 301.34 L 33.17 315.31 L 27.25 329.47 L 22.19 343.80 L 18.01 358.26 L 14.74 372.82 L 12.37 387.42 L 10.94 402.05 L 10.46 416.64 L 10.93 431.16 L 12.36 445.55 L 14.75 459.78 L 18.10 473.80 L 22.39 487.54 L 27.62 500.98 L 33.77 514.06 L 40.81 526.74 L 48.71 538.97 L 57.46 550.73 L 67.01 561.97 L 77.33 572.67 L 88.39 582.79 L 100.15 592.32 L 112.57 601.24 Z" fill="url(#blueArc)" opacity="0.9"/><ellipse cx="368.5" cy="368.5" rx="265.32000000000005" ry="191.62" transform="rotate(-18 368.5 368.5)" fill="none" stroke="url(#chromeCore)" stroke-width="147.4" opacity="0.95"/><path d="M 593.60 181.46 L 603.47 188.53 L 612.74 195.99 L 621.39 203.84 L 629.40 212.03 L 636.77 220.57 L 643.49 229.42 L 649.55 238.57 L 654.94 248.01 L 659.66 257.71 L 663.71 267.67 L 667.08 277.87 L 669.77 288.30 L 671.76 298.94 L 673.05 309.79 L 673.64 320.82 L 673.51 332.01 L 672.65 343.36 L 671.07 354.83 L 668.75 366.39 L 665.70 378.03 L 661.90 389.72 L 657.36 401.42 L 652.09 413.09 L 646.09 424.72 L 639.37 436.26 L 631.94 447.68 L 623.82 458.94 L 615.02 470.02 L 605.56 480.88 L 595.47 491.48 L 584.77 501.80 L 573.48 511.81 L 561.64 521.47 L 549.28 530.75 L 536.42 539.64 L 523.10 548.09 L 509.36 556.10 L 495.23 563.64 L 480.75 570.67 L 465.95 577.20 L 450.88 583.19 L 435.57 588.63 L 420.06 593.51 L 404.41 597.81 L 388.63 601.52 L 372.79 604.63 L 356.92 607.14 L 341.05 609.03 L 325.24 610.31 L 309.52 610.96 L 293.94 611.00 L 278.53 610.41 L 263.33 609.21 L 248.38 607.39 L 233.72 604.96 L 219.39 601.93 L 205.42 598.32 L 191.84 594.11 L 178.69 589.34 L 166.00 584.01 L 153.80 578.14 L 142.12 571.74 L 130.98 564.82 L 120.41 557.41 L 110.42 549.51 L 101.06 541.16 L 92.32 532.35 L 84.24 523.12 L 76.83 513.47 L 70.10 503.44 L 64.08 493.03 L 58.78 482.26 L 54.22 471.16 L 50.41 459.75 L 47.35 448.06 L 45.08 436.09 L 43.59 423.89 L 42.90 411.48 L 43.02 398.89 L 43.94 386.15 L 34.12 384.73 L 32.12 398.00 L 30.97 411.28 L 30.68 424.52 L 31.26 437.68 L 32.72 450.74 L 35.05 463.66 L 38.27 476.40 L 42.35 488.92 L 47.30 501.19 L 53.11 513.16 L 59.75 524.80 L 67.22 536.07 L 75.50 546.95 L 84.55 557.39 L 94.36 567.37 L 104.89 576.85 L 116.12 585.82 L 128.02 594.24 L 140.55 602.10 L 153.68 609.37 L 167.36 616.03 L 181.58 622.08 L 196.28 627.49 L 211.43 632.25 L 226.99 636.35 L 242.91 639.78 L 259.17 642.53 L 275.72 644.60 L 292.51 645.99 L 309.51 646.69 L 326.68 646.70 L 343.96 646.02 L 361.33 644.65 L 378.73 642.60 L 396.12 639.88 L 413.47 636.48 L 430.72 632.42 L 447.85 627.70 L 464.80 622.34 L 481.53 616.36 L 498.01 609.75 L 514.20 602.55 L 530.05 594.76 L 545.53 586.40 L 560.60 577.49 L 575.23 568.05 L 589.37 558.10 L 603.00 547.67 L 616.07 536.76 L 628.56 525.41 L 640.43 513.65 L 651.66 501.48 L 662.21 488.95 L 672.06 476.07 L 681.17 462.88 L 689.52 449.40 L 697.08 435.66 L 703.83 421.69 L 709.75 407.53 L 714.81 393.20 L 718.99 378.74 L 722.26 364.18 L 724.63 349.58 L 726.06 334.95 L 726.54 320.36 L 726.07 305.84 L 724.64 291.45 L 722.25 277.22 L 718.90 263.20 L 714.61 249.46 L 709.38 236.02 L 703.23 222.94 L 696.19 210.26 L 688.29 198.03 L 679.54 186.27 L 669.99 175.03 L 659.67 164.33 L 648.61 154.21 L 636.85 144.68 L 624.43 135.76 Z" fill="url(#redArc)" opacity="0.92"/><circle cx="543.5" cy="221.6" r="66.3" fill="white" opacity="0.55" filter="url(#specBlur)"/><ellipse cx="368.5" cy="324.28" rx="182.039" ry="126.02699999999999" transform="rotate(-18 368.5 324.28)" fill="none" stroke="#EFF0F3" stroke-width="1.5" opacity="0.35" filter="url(#specBlur)"/><circle cx="425.4" cy="640.7" r="1.0" fill="white" opacity="0.15179998562001187"/><circle cx="191.3" cy="681.2" r="0.7" fill="white" opacity="0.37779197056621067"/><circle cx="318.1" cy="608.9" r="0.9" fill="white" opacity="0.19101832322408785"/><circle cx="700.2" cy="181.3" r="0.9" fill="white" opacity="0.37567189337740237"/><circle cx="518.5" cy="201.3" r="0.9" fill="white" opacity="0.25181337530108316"/><circle cx="392.1" cy="730.4" r="1.2" fill="white" opacity="0.4407799767471393"/><circle cx="305.5" cy="572.5" r="1.2" fill="white" opacity="0.38960120224831235"/><circle cx="700.0" cy="449.5" r="0.8" fill="white" opacity="0.4401897672605549"/><circle cx="651.0" cy="320.7" r="0.9" fill="white" opacity="0.41681595998941834"/><circle cx="231.1" cy="600.6" r="1.4" fill="white" opacity="0.41489552501908544"/><circle cx="402.6" cy="-38.8" r="1.0" fill="white" opacity="0.20399487174321948"/><circle cx="431.8" cy="630.0" r="0.9" fill="white" opacity="0.17073009605262388"/>

</g>
</g>
</svg>