<?xml version="1.0" encoding="UTF-8"?>
<svg xmlns="http://www.w3.org/2000/svg" viewBox="0 0 120 120" width="120" height="120">
<defs>

<linearGradient id="redArc" x1="3.0%" y1="32.9%" x2="97.0%" y2="67.1%">
<stop offset="0%" stop-color="#3B0A0A" stop-opacity="1"/>
<stop offset="18%" stop-color="#821515" stop-opacity="1"/>
<stop offset="45%" stop-color="#E22229" stop-opacity="1"/>
<stop offset="60%" stop-color="#FF2436" stop-opacity="1"/>
<stop offset="78%" stop-color="#E22229" stop-opacity="1"/>
</linearGradient>
<linearGradient id="blueArc" x1="0.8%" y1="58.7%" x2="99.2%" y2="41.3%">
<stop offset="0%" stop-color="#04223F" stop-opacity="1"/>
<stop offset="18%" stop-color="#0B549A" stop-opacity="1"/>
<stop offset="45%" stop-color="#157BCA" stop-opacity="1"/>
<stop offset="62%" stop-color="#3CAAFF" stop-opacity="1"/>
<stop offset="80%" stop-color="#157BCA" stop-opacity="1"/>
</linearGradient>
<linearGradient id="chromeCore" x1="71.1%" y1="4.7%" x2="28.9%" y2="95.3%">
<stop offset="0%" stop-color="#2B2E36" stop-opacity="1"/>
<stop offset="35%" stop-color="#B7ACAA" stop-opacity="1"/>
<stop offset="55%" stop-color="#EFF0F3" stop-opacity="1"/>
<stop offset="78%" stop-color="#6B6F7A" stop-opacity="1"/>
<stop offset="100%" stop-color="#1A1C22" stop-opacity="1"/>
</linearGradient>
<filter id="glow_red" x="-50%" y="-50%" width="200%" height="200%">
  <feDropShadow dx="0" dy="0" stdDeviation="1.796875" flood-color="#FF2436" flood-opacity="0.55"/>
</filter>
<filter id="glow_blue" x="-50%" y="-50%" width="200%" height="200%">
  <feDropShadow dx="0" dy="0" stdDeviation="1.71875" flood-color="#3CAAFF" flood-opacity="0.5"/>
</filter>
<filter id="glow_white" x="-50%" y="-50%" width="200%" height="200%">
  <feDropShadow dx="0" dy="0" stdDeviation="0.859375" flood-color="#FFFFFF" flood-opacity="0.25"/>
</filter>
<filter id="iconShadow" x="-50%" y="-50%" width="200%" height="200%">
  <feDropShadow dx="0.0" dy="1.09375" stdDeviation="1.09375" flood-color="#000000" flood-opacity="0.55"/>
</filter>
<filter id="specBlur" x="-50%" y="-50%" width="200%" height="200%">
  <feGaussianBlur stdDeviation="0.3125"/>
</filter>

</defs>
<style>
@keyframes pulse {
  0%, 100% { transform: scale(1); opacity: 0.45; }
  50% { transform: scale(1.03); opacity: 0.62; }
}
@keyframes streakSweep {
  0% { transform: translateX(-35%); opacity: 0; }
  15% { transform: translateX(-5%); opacity: 0.85; }
  55% { transform: translateX(35%); opacity: 0.85; }
  100% { transform: translateX(85%); opacity: 0; }
}
.icon-pulse {
  animation: pulse 1400ms ease-in-out infinite;
  transform-origin: 60.0px 60.0px;
}
</style>
<g class="icon-pulse" transform="translate(20.0, 20.0)">

<ellipse cx="40.0" cy="40.0" rx="40.48000000000001" ry="29.920000000000005" transform="rotate(-18 40.0 40.0)" fill="#FF2436" opacity="0.33" filter="url(#glow_red)"/><ellipse cx="40.0" cy="40.0" rx="40.48000000000001" ry="29.920000000000005" transform="rotate(-18 40.0 40.0)" fill="#3CAAFF" opacity="0.3" filter="url(#glow_blue)"/><ellipse cx="40.0" cy="40.0" rx="40.48000000000001" ry="29.920000000000005" transform="rotate(-18 40.0 40.0)" fill="#FFFFFF" opacity="0.15" filter="url(#glow_white)"/><ellipse cx="40.0" cy="40.0" rx="36.800000000000004" ry="27.200000000000003" transform="rotate(-18 40.0 40.0)" fill="#050405" opacity="0.6" filter="url(#iconShadow)"/><path d="M 15.57 60.30 L 14.49 59.54 L 13.49 58.73 L 12.55 57.87 L 11.68 56.98 L 10.88 56.06 L 10.15 55.10 L 9.49 54.10 L 8.91 53.08 L 8.39 52.03 L 7.96 50.94 L 7.59 49.84 L 7.30 48.71 L 7.08 47.55 L 6.94 46.37 L 6.88 45.18 L 6.89 43.96 L 6.98 42.73 L 7.16 41.48 L 7.41 40.23 L 7.74 38.97 L 8.15 37.70 L 8.64 36.43 L 9.22 35.16 L 9.87 33.90 L 10.60 32.64 L 11.40 31.41 L 12.29 30.18 L 13.24 28.98 L 14.27 27.80 L 15.36 26.65 L 16.52 25.53 L 17.75 24.44 L 19.03 23.40 L 20.38 22.39 L 21.77 21.42 L 23.22 20.51 L 24.71 19.64 L 26.24 18.82 L 27.82 18.05 L 29.42 17.35 L 31.06 16.70 L 32.72 16.11 L 34.40 15.58 L 36.10 15.11 L 37.81 14.71 L 39.53 14.37 L 41.26 14.10 L 42.98 13.89 L 44.70 13.75 L 46.40 13.68 L 48.09 13.68 L 49.77 13.74 L 51.42 13.87 L 53.04 14.07 L 54.63 14.33 L 56.19 14.66 L 57.70 15.05 L 59.18 15.51 L 60.60 16.03 L 61.98 16.61 L 63.30 17.24 L 64.57 17.94 L 65.78 18.69 L 66.93 19.49 L 68.01 20.35 L 69.03 21.26 L 69.98 22.21 L 70.86 23.22 L 71.66 24.26 L 72.39 25.35 L 73.04 26.48 L 73.62 27.65 L 74.11 28.86 L 74.53 30.09 L 74.86 31.36 L 75.11 32.66 L 75.27 33.99 L 75.34 35.33 L 75.33 36.70 L 75.23 38.08 L 76.30 38.24 L 76.51 36.80 L 76.64 35.36 L 76.67 33.92 L 76.61 32.49 L 76.45 31.07 L 76.20 29.67 L 75.85 28.29 L 75.40 26.93 L 74.87 25.60 L 74.24 24.30 L 73.51 23.03 L 72.70 21.81 L 71.81 20.63 L 70.82 19.50 L 69.76 18.41 L 68.61 17.38 L 67.39 16.41 L 66.10 15.50 L 64.74 14.64 L 63.32 13.85 L 61.83 13.13 L 60.29 12.47 L 58.69 11.89 L 57.05 11.37 L 55.36 10.93 L 53.63 10.55 L 51.87 10.25 L 50.07 10.03 L 48.25 9.88 L 46.40 9.80 L 44.54 9.80 L 42.66 9.88 L 40.78 10.02 L 38.89 10.25 L 37.00 10.54 L 35.12 10.91 L 33.25 11.35 L 31.39 11.86 L 29.55 12.45 L 27.73 13.10 L 25.94 13.81 L 24.18 14.59 L 22.46 15.44 L 20.78 16.35 L 19.15 17.31 L 17.56 18.34 L 16.02 19.42 L 14.55 20.55 L 13.13 21.74 L 11.77 22.97 L 10.48 24.24 L 9.26 25.56 L 8.12 26.93 L 7.05 28.32 L 6.06 29.75 L 5.15 31.22 L 4.33 32.71 L 3.60 34.23 L 2.96 35.76 L 2.41 37.32 L 1.96 38.89 L 1.60 40.47 L 1.34 42.05 L 1.19 43.64 L 1.14 45.23 L 1.19 46.80 L 1.34 48.36 L 1.60 49.91 L 1.96 51.43 L 2.43 52.92 L 3.00 54.38 L 3.67 55.80 L 4.43 57.18 L 5.29 58.50 L 6.24 59.78 L 7.27 61.00 L 8.39 62.16 L 9.59 63.26 L 10.87 64.30 L 12.22 65.26 Z" fill="url(#blueArc)" opacity="0.9"/><ellipse cx="40.0" cy="40.0" rx="28.800000000000004" ry="20.8" transform="rotate(-18 40.0 40.0)" fill="none" stroke="url(#chromeCore)" stroke-width="16.0" opacity="0.95"/><path d="M 64.43 19.70 L 65.51 20.46 L 66.51 21.27 L 67.45 22.13 L 68.32 23.02 L 69.12 23.94 L 69.85 24.90 L 70.51 25.90 L 71.09 26.92 L 71.61 27.97 L 72.04 29.06 L 72.41 30.16 L 72.70 31.29 L 72.92 32.45 L 73.06 33.63 L 73.12 34.82 L 73.11 36.04 L 73.02 37.27 L 72.84 38.52 L 72.59 39.77 L 72.26 41.03 L 71.85 42.30 L 71.36 43.57 L 70.78 44.84 L 70.13 46.10 L 69.40 47.36 L 68.60 48.59 L 67.71 49.82 L 66.76 51.02 L 65.73 52.20 L 64.64 53.35 L 63.48 54.47 L 62.25 55.56 L 60.97 56.60 L 59.62 57.61 L 58.23 58.58 L 56.78 59.49 L 55.29 60.36 L 53.76 61.18 L 52.18 61.95 L 50.58 62.65 L 48.94 63.30 L 47.28 63.89 L 45.60 64.42 L 43.90 64.89 L 42.19 65.29 L 40.47 65.63 L 38.74 65.90 L 37.02 66.11 L 35.30 66.25 L 33.60 66.32 L 31.91 66.32 L 30.23 66.26 L 28.58 66.13 L 26.96 65.93 L 25.37 65.67 L 23.81 65.34 L 22.30 64.95 L 20.82 64.49 L 19.40 63.97 L 18.02 63.39 L 16.70 62.76 L 15.43 62.06 L 14.22 61.31 L 13.07 60.51 L 11.99 59.65 L 10.97 58.74 L 10.02 57.79 L 9.14 56.78 L 8.34 55.74 L 7.61 54.65 L 6.96 53.52 L 6.38 52.35 L 5.89 51.14 L 5.47 49.91 L 5.14 48.64 L 4.89 47.34 L 4.73 46.01 L 4.66 44.67 L 4.67 43.30 L 4.77 41.92 L 3.70 41.76 L 3.49 43.20 L 3.36 44.64 L 3.33 46.08 L 3.39 47.51 L 3.55 48.93 L 3.80 50.33 L 4.15 51.71 L 4.60 53.07 L 5.13 54.40 L 5.76 55.70 L 6.49 56.97 L 7.30 58.19 L 8.19 59.37 L 9.18 60.50 L 10.24 61.59 L 11.39 62.62 L 12.61 63.59 L 13.90 64.50 L 15.26 65.36 L 16.68 66.15 L 18.17 66.87 L 19.71 67.53 L 21.31 68.11 L 22.95 68.63 L 24.64 69.07 L 26.37 69.45 L 28.13 69.75 L 29.93 69.97 L 31.75 70.12 L 33.60 70.20 L 35.46 70.20 L 37.34 70.12 L 39.22 69.98 L 41.11 69.75 L 43.00 69.46 L 44.88 69.09 L 46.75 68.65 L 48.61 68.14 L 50.45 67.55 L 52.27 66.90 L 54.06 66.19 L 55.82 65.41 L 57.54 64.56 L 59.22 63.65 L 60.85 62.69 L 62.44 61.66 L 63.98 60.58 L 65.45 59.45 L 66.87 58.26 L 68.23 57.03 L 69.52 55.76 L 70.74 54.44 L 71.88 53.07 L 72.95 51.68 L 73.94 50.25 L 74.85 48.78 L 75.67 47.29 L 76.40 45.77 L 77.04 44.24 L 77.59 42.68 L 78.04 41.11 L 78.40 39.53 L 78.66 37.95 L 78.81 36.36 L 78.86 34.77 L 78.81 33.20 L 78.66 31.64 L 78.40 30.09 L 78.04 28.57 L 77.57 27.08 L 77.00 25.62 L 76.33 24.20 L 75.57 22.82 L 74.71 21.50 L 73.76 20.22 L 72.73 19.00 L 71.61 17.84 L 70.41 16.74 L 69.13 15.70 L 67.78 14.74 Z" fill="url(#redArc)" opacity="0.92"/><circle cx="59.0" cy="24.1" r="7.2" fill="white" opacity="0.55" filter="url(#specBlur)"/><ellipse cx="40.0" cy="35.2" rx="19.759999999999998" ry="13.679999999999998" transform="rotate(-18 40.0 35.2)" fill="none" stroke="#EFF0F3" stroke-width="1.5" opacity="0.35" filter="url(#specBlur)"/><circle cx="46.2" cy="69.5" r="0.1" fill="white" opacity="0.15179998562001187"/>

</g>
</svg>